<?xml version="1.0" encoding="UTF-8" standalone="no"?>
<!-- Created with Inkscape (http://www.inkscape.org/) -->

<svg
   xmlns:dc="http://purl.org/dc/elements/1.1/"
   xmlns:cc="http://creativecommons.org/ns#"
   xmlns:rdf="http://www.w3.org/1999/02/22-rdf-syntax-ns#"
   xmlns:svg="http://www.w3.org/2000/svg"
   xmlns="http://www.w3.org/2000/svg"
   xmlns:sodipodi="http://sodipodi.sourceforge.net/DTD/sodipodi-0.dtd"
   xmlns:inkscape="http://www.inkscape.org/namespaces/inkscape"
   width="16.819641mm"
   height="26.319332mm"
   viewBox="0 0 16.819641 26.319332"
   version="1.1"
   id="svg8"
   inkscape:version="0.92.4 (5da689c313, 2019-01-14)"
   sodipodi:docname="pack.svg">
  <defs
     id="defs2" />
  <sodipodi:namedview
     id="base"
     pagecolor="#ffffff"
     bordercolor="#666666"
     borderopacity="1.0"
     inkscape:pageopacity="0.0"
     inkscape:pageshadow="2"
     inkscape:zoom="3.959798"
     inkscape:cx="11.694252"
     inkscape:cy="75.067598"
     inkscape:document-units="mm"
     inkscape:current-layer="layer1"
     showgrid="false"
     inkscape:window-width="1857"
     inkscape:window-height="1057"
     inkscape:window-x="55"
     inkscape:window-y="-8"
     inkscape:window-maximized="1" />
  <metadata
     id="metadata5">
    <rdf:RDF>
      <cc:Work
         rdf:about="">
        <dc:format>image/svg+xml</dc:format>
        <dc:type
           rdf:resource="http://purl.org/dc/dcmitype/StillImage" />
        <dc:title></dc:title>
      </cc:Work>
    </rdf:RDF>
  </metadata>
  <g
     inkscape:label="Layer 1"
     inkscape:groupmode="layer"
     id="layer1"
     transform="translate(-76.848641,-84.209939)">
    <g
       id="g1006"
       transform="translate(56.768984,-0.08713798)"
       style="fill:#333333">
      <g
         transform="translate(-0.14174107,-0.03543527)"
         id="g892"
         style="fill:#333333">
        <rect
           style="opacity:1;fill:#333333;fill-opacity:1;stroke:#000000;stroke-width:0;stroke-linecap:round;stroke-linejoin:round;stroke-miterlimit:4;stroke-dasharray:none;stroke-dashoffset:0;stroke-opacity:1"
           id="rect826"
           width="19.276785"
           height="1.1339285"
           x="91.564735"
           y="97.995537"
           rx="0.70479178"
           ry="0.64555418" />
        <path
           inkscape:connector-curvature="0"
           style="opacity:1;fill:#333333;fill-opacity:1;stroke:#000000;stroke-width:0;stroke-linecap:round;stroke-linejoin:round;stroke-miterlimit:4;stroke-dasharray:none;stroke-dashoffset:0;stroke-opacity:1"
           d="m 416.5625,343.76953 a 15.446428,15.446428 0 0 0 -13.39258,7.82227 1.1600972,1.0219903 0 0 1 0.14063,0.48437 1.1600972,1.0219903 0 0 1 -0.41602,0.78321 l 3.50781,1.29296 c 0.0495,-0.25 0.24338,-0.43917 0.48828,-0.44336 a 11.116071,11.116071 0 0 1 9.62696,-5.60937 11.116071,11.116071 0 0 1 11.11719,11.11719 11.116071,11.116071 0 0 1 -10.8086,11.10547 c -0.18117,0.0354 -0.36751,0.0547 -0.56055,0.0547 h -10.37304 a 15.446428,15.446428 0 0 0 10.66992,4.28516 15.446428,15.446428 0 0 0 15.44727,-15.44531 15.446428,15.446428 0 0 0 -15.44727,-15.44727 z"
           transform="scale(0.26458333)"
           id="path830" />
        <path
           style="opacity:1;fill:#333333;fill-opacity:1;stroke:#000000;stroke-width:0;stroke-linecap:round;stroke-linejoin:round;stroke-miterlimit:4;stroke-dasharray:none;stroke-dashoffset:0;stroke-opacity:1"
           d="m 106.69672,92.981624 c -0.20246,0.333576 -0.14965,0.73327 0.11863,0.896326 0.26843,0.163127 0.64774,0.02572 0.85053,-0.307938 l 0.008,-0.01237 c -0.13428,0.01645 -0.27112,-0.0075 -0.39214,-0.08109 l -0.33829,-0.205581 c -0.11426,-0.06944 -0.19757,-0.171449 -0.24625,-0.289342 z"
           id="rect826-0"
           inkscape:connector-curvature="0" />
      </g>
      <g
         transform="translate(0.25985863,-0.02362351)"
         id="g934"
         style="fill:#333333">
        <rect
           style="opacity:1;fill:#333333;fill-opacity:1;stroke:#000000;stroke-width:0;stroke-linecap:round;stroke-linejoin:round;stroke-miterlimit:4;stroke-dasharray:none;stroke-dashoffset:0;stroke-opacity:1"
           id="rect826-4"
           width="7.4886527"
           height="1.1339285"
           x="91.15712"
           y="94.286667"
           rx="0.60788298"
           ry="0.54532754" />
        <path
           style="opacity:1;fill:#333333;fill-opacity:1;stroke:#000000;stroke-width:0;stroke-linecap:round;stroke-linejoin:round;stroke-miterlimit:4;stroke-dasharray:none;stroke-dashoffset:0;stroke-opacity:1"
           d="m 98.019743,87.246815 a 4.0868674,4.0868674 0 0 0 -3.543453,2.069643 0.30694238,0.2704016 0 0 1 0.03721,0.128156 0.30694238,0.2704016 0 0 1 -0.110072,0.207224 l 0.928108,0.342096 c 0.0131,-0.06615 0.06439,-0.116197 0.129191,-0.117306 a 2.9411271,2.9411271 0 0 1 2.547133,-1.484146 2.9411271,2.9411271 0 0 1 2.94142,2.941424 2.9411271,2.9411271 0 0 1 -2.859772,2.938322 c -0.04793,0.0094 -0.09724,0.01447 -0.148312,0.01447 H 95.19666 a 4.0868674,4.0868674 0 0 0 2.823083,1.133782 4.0868674,4.0868674 0 0 0 4.087087,-4.086571 4.0868674,4.0868674 0 0 0 -4.087087,-4.08709 z"
           id="path830-6"
           inkscape:connector-curvature="0" />
        <path
           style="opacity:1;fill:#333333;fill-opacity:1;stroke:#000000;stroke-width:0;stroke-linecap:round;stroke-linejoin:round;stroke-miterlimit:4;stroke-dasharray:none;stroke-dashoffset:0;stroke-opacity:1"
           d="m 94.50097,89.272752 c -0.20246,0.333576 -0.14965,0.73327 0.11863,0.896326 0.26843,0.163127 0.64774,0.02572 0.85053,-0.307938 l 0.008,-0.01237 c -0.13428,0.01645 -0.27112,-0.0075 -0.39214,-0.08109 L 94.7477,89.562099 c -0.11426,-0.06944 -0.19757,-0.171449 -0.24625,-0.289342 z"
           id="rect826-0-6"
           inkscape:connector-curvature="0" />
      </g>
      <g
         transform="translate(-0.11811756)"
         id="g990"
         style="fill:#333333">
        <rect
           style="opacity:1;fill:#333333;fill-opacity:1;stroke:#000000;stroke-width:0;stroke-linecap:round;stroke-linejoin:round;stroke-miterlimit:4;stroke-dasharray:none;stroke-dashoffset:0;stroke-opacity:1"
           id="rect826-3"
           width="12.355096"
           height="1.1"
           x="91.535934"
           y="-102.83723"
           rx="0.64070928"
           ry="0.62623847"
           transform="scale(1,-1)" />
        <path
           style="opacity:1;fill:#333333;fill-opacity:1;stroke:#000000;stroke-width:0;stroke-linecap:round;stroke-linejoin:round;stroke-miterlimit:4;stroke-dasharray:none;stroke-dashoffset:0;stroke-opacity:1"
           d="m 103.265,109.66644 a 4.0868674,3.9645834 0 0 1 -3.54345,-2.00772 0.30694238,0.26231086 0 0 0 0.03721,-0.12432 0.30694238,0.26231086 0 0 0 -0.110072,-0.20103 l 0.928102,-0.33186 c 0.0131,0.0642 0.0644,0.11272 0.1292,0.1138 a 2.9411271,2.853125 0 0 0 2.54713,1.43974 2.9411271,2.853125 0 0 0 2.94142,-2.85341 2.9411271,2.853125 0 0 0 -2.85977,-2.85041 c -0.0479,-0.009 -0.0972,-0.014 -0.14832,-0.014 h -2.74453 a 4.0868674,3.9645834 0 0 1 2.82308,-1.09986 4.0868674,3.9645834 0 0 1 4.08709,3.9643 4.0868674,3.9645834 0 0 1 -4.08709,3.9648 z"
           id="path830-4"
           inkscape:connector-curvature="0" />
        <path
           style="opacity:1;fill:#333333;fill-opacity:1;stroke:#000000;stroke-width:0;stroke-linecap:round;stroke-linejoin:round;stroke-miterlimit:4;stroke-dasharray:none;stroke-dashoffset:0;stroke-opacity:1"
           d="m 99.74623,107.70112 c -0.20246,-0.3236 -0.14965,-0.71133 0.11863,-0.86951 0.26843,-0.15825 0.64774,-0.025 0.85053,0.29872 l 0.008,0.012 c -0.13428,-0.016 -0.27112,0.007 -0.39214,0.0787 l -0.33829,0.19943 c -0.11426,0.0674 -0.19757,0.16632 -0.24625,0.28068 z"
           id="rect826-0-1"
           inkscape:connector-curvature="0" />
      </g>
    </g>
    <path
       style="opacity:1;fill:#333333;fill-opacity:1;stroke:#000000;stroke-width:0;stroke-linecap:round;stroke-linejoin:round;stroke-miterlimit:4;stroke-dasharray:none;stroke-dashoffset:0;stroke-opacity:1"
       d="m 85.389721,84.209939 c -2.37446,5.35503 -8.54108,14.6661 -8.54108,17.909501 0,4.6447 3.76512,8.40983 8.40982,8.40983 4.6447,0 8.40982,-3.76513 8.40982,-8.40983 0,-3.227351 -6.06543,-12.549501 -8.27856,-17.909501 z m -0.0227,3.29386 c 1.8339,4.4178 6.86005,12.10133 6.86005,14.761371 0,3.82825 -3.11975,6.93136 -6.96857,6.93136 -3.84882,0 -6.96857,-3.10311 -6.96857,-6.93136 0,-2.673271 5.1095,-10.347661 7.07709,-14.761371 z"
       id="path1081"
       inkscape:connector-curvature="0" />
    <g
       id="g1327"
       transform="translate(-60.402156,20.856043)"
       style="fill:#333333">
      <path
         transform="scale(0.26458333)"
         id="path1116"
         d="m 555.17773,507.69922 a 45.892859,45.892859 0 0 0 -45.89257,45.89258 45.892859,45.892859 0 0 0 45.89257,45.89258 45.892859,45.892859 0 0 0 45.89454,-45.89258 45.892859,45.892859 0 0 0 -45.89454,-45.89258 z m -0.0781,5 a 41.071436,41.071436 0 0 1 41.07227,41.07031 41.071436,41.071436 0 0 1 -41.07227,41.07227 41.071436,41.071436 0 0 1 -41.07031,-41.07227 41.071436,41.071436 0 0 1 41.07031,-41.07031 z"
         style="opacity:1;fill:#333333;fill-opacity:1;stroke:#000000;stroke-width:0;stroke-linecap:round;stroke-linejoin:round;stroke-miterlimit:4;stroke-dasharray:none;stroke-dashoffset:0;stroke-opacity:1"
         inkscape:connector-curvature="0" />
      <path
         id="rect1159"
         transform="scale(0.26458333)"
         d="m 568.20703,538.86914 c -0.44582,-0.0231 -0.8902,0.12489 -1.22851,0.44922 l -12.58594,12.06641 a 2.2097099,2.2097099 0 0 1 0.84375,-0.16993 2.2097099,2.2097099 0 0 1 2.21094,2.21094 2.2097099,2.2097099 0 0 1 -0.0391,0.40234 l 12.23438,-11.72851 c 0.67662,-0.64865 0.6664,-1.75112 -0.0234,-2.4707 l -0.17383,-0.18164 c -0.34492,-0.3598 -0.79245,-0.55499 -1.23828,-0.57813 z m -14.97265,13.625 -11.20508,10.74219 c -0.67662,0.64865 -0.66445,1.74916 0.0254,2.46875 l 0.17383,0.18164 c 0.68984,0.71959 1.79017,0.77755 2.46679,0.1289 l 10.85352,-10.40429 a 2.2097099,2.2097099 0 0 1 -0.3125,0.0234 2.2097099,2.2097099 0 0 1 -2.20899,-2.20899 2.2097099,2.2097099 0 0 1 0.20704,-0.93164 z"
         style="opacity:1;fill:#333333;fill-opacity:1;stroke:#000000;stroke-width:0;stroke-linecap:round;stroke-linejoin:round;stroke-miterlimit:4;stroke-dasharray:none;stroke-dashoffset:0;stroke-opacity:1"
         inkscape:connector-curvature="0" />
      <path
         id="path1136"
         transform="scale(0.26458333)"
         d="m 555.20508,547.36328 a 6.0609154,6.0609154 0 0 0 -6.06055,6.0625 6.0609154,6.0609154 0 0 0 6.06055,6.06055 6.0609154,6.0609154 0 0 0 6.06054,-6.06055 6.0609154,6.0609154 0 0 0 -6.06054,-6.0625 z m 0.0234,3.85352 a 2.2097099,2.2097099 0 0 1 2.20898,2.21093 2.2097099,2.2097099 0 0 1 -2.20898,2.20899 2.2097099,2.2097099 0 0 1 -2.21094,-2.20899 2.2097099,2.2097099 0 0 1 2.21094,-2.21093 z"
         style="opacity:1;fill:#333333;fill-opacity:1;stroke:#000000;stroke-width:0;stroke-linecap:round;stroke-linejoin:round;stroke-miterlimit:4;stroke-dasharray:none;stroke-dashoffset:0;stroke-opacity:1"
         inkscape:connector-curvature="0" />
      <path
         inkscape:connector-curvature="0"
         id="path1165"
         d="m 151.54221,141.98004 -2.42595,0.72126 -0.0194,-0.0157 1.53372,1.67261 z"
         style="opacity:1;fill:#333333;fill-opacity:1;stroke:#000000;stroke-width:0;stroke-linecap:round;stroke-linejoin:round;stroke-miterlimit:4;stroke-dasharray:none;stroke-dashoffset:0;stroke-opacity:1" />
      <circle
         r="0.58465242"
         cy="146.49385"
         cx="155.3504"
         id="path1136-4-3"
         style="opacity:1;fill:#333333;fill-opacity:1;stroke:#000000;stroke-width:0;stroke-linecap:round;stroke-linejoin:round;stroke-miterlimit:4;stroke-dasharray:none;stroke-dashoffset:0;stroke-opacity:1" />
      <circle
         r="0.58465242"
         cy="149.75465"
         cx="154.68675"
         id="path1136-4-9"
         style="opacity:1;fill:#333333;fill-opacity:1;stroke:#000000;stroke-width:0;stroke-linecap:round;stroke-linejoin:round;stroke-miterlimit:4;stroke-dasharray:none;stroke-dashoffset:0;stroke-opacity:1" />
      <circle
         r="0.58465242"
         cy="152.49498"
         cx="152.86774"
         id="path1136-4-36"
         style="opacity:1;fill:#333333;fill-opacity:1;stroke:#000000;stroke-width:0;stroke-linecap:round;stroke-linejoin:round;stroke-miterlimit:4;stroke-dasharray:none;stroke-dashoffset:0;stroke-opacity:1" />
      <circle
         r="0.58465242"
         cy="154.29036"
         cx="150.05655"
         id="path1136-4-8"
         style="opacity:1;fill:#333333;fill-opacity:1;stroke:#000000;stroke-width:0;stroke-linecap:round;stroke-linejoin:round;stroke-miterlimit:4;stroke-dasharray:none;stroke-dashoffset:0;stroke-opacity:1" />
      <circle
         r="0.58465242"
         cy="154.33762"
         cx="143.67819"
         id="path1136-4-83"
         style="opacity:1;fill:#333333;fill-opacity:1;stroke:#000000;stroke-width:0;stroke-linecap:round;stroke-linejoin:round;stroke-miterlimit:4;stroke-dasharray:none;stroke-dashoffset:0;stroke-opacity:1" />
      <circle
         r="0.58465242"
         cy="152.47134"
         cx="140.867"
         id="path1136-4-5"
         style="opacity:1;fill:#333333;fill-opacity:1;stroke:#000000;stroke-width:0;stroke-linecap:round;stroke-linejoin:round;stroke-miterlimit:4;stroke-dasharray:none;stroke-dashoffset:0;stroke-opacity:1" />
      <circle
         r="0.58465242"
         cy="149.68378"
         cx="138.97711"
         id="path1136-4-6"
         style="opacity:1;fill:#333333;fill-opacity:1;stroke:#000000;stroke-width:0;stroke-linecap:round;stroke-linejoin:round;stroke-miterlimit:4;stroke-dasharray:none;stroke-dashoffset:0;stroke-opacity:1" />
      <circle
         r="0.58465242"
         cy="146.4946"
         cx="138.38654"
         id="path1136-4-68"
         style="opacity:1;fill:#333333;fill-opacity:1;stroke:#000000;stroke-width:0;stroke-linecap:round;stroke-linejoin:round;stroke-miterlimit:4;stroke-dasharray:none;stroke-dashoffset:0;stroke-opacity:1" />
      <circle
         r="0.58465242"
         cy="143.21094"
         cx="139.02437"
         id="path1136-4-7"
         style="opacity:1;fill:#333333;fill-opacity:1;stroke:#000000;stroke-width:0;stroke-linecap:round;stroke-linejoin:round;stroke-miterlimit:4;stroke-dasharray:none;stroke-dashoffset:0;stroke-opacity:1" />
      <circle
         r="0.58465242"
         cy="140.44699"
         cx="140.89062"
         id="path1136-4-2"
         style="opacity:1;fill:#333333;fill-opacity:1;stroke:#000000;stroke-width:0;stroke-linecap:round;stroke-linejoin:round;stroke-miterlimit:4;stroke-dasharray:none;stroke-dashoffset:0;stroke-opacity:1" />
      <circle
         r="0.58465242"
         cy="138.6516"
         cx="143.65457"
         id="path1136-4-78"
         style="opacity:1;fill:#333333;fill-opacity:1;stroke:#000000;stroke-width:0;stroke-linecap:round;stroke-linejoin:round;stroke-miterlimit:4;stroke-dasharray:none;stroke-dashoffset:0;stroke-opacity:1" />
      <circle
         r="0.58465242"
         cy="137.99014"
         cx="146.86737"
         id="path1136-4-76"
         style="opacity:1;fill:#333333;fill-opacity:1;stroke:#000000;stroke-width:0;stroke-linecap:round;stroke-linejoin:round;stroke-miterlimit:4;stroke-dasharray:none;stroke-dashoffset:0;stroke-opacity:1" />
      <circle
         r="0.58465242"
         cy="138.62798"
         cx="150.10379"
         id="path1136-4-93"
         style="opacity:1;fill:#333333;fill-opacity:1;stroke:#000000;stroke-width:0;stroke-linecap:round;stroke-linejoin:round;stroke-miterlimit:4;stroke-dasharray:none;stroke-dashoffset:0;stroke-opacity:1" />
      <circle
         r="0.58465242"
         cy="140.49423"
         cx="152.84413"
         id="path1136-4-50"
         style="opacity:1;fill:#333333;fill-opacity:1;stroke:#000000;stroke-width:0;stroke-linecap:round;stroke-linejoin:round;stroke-miterlimit:4;stroke-dasharray:none;stroke-dashoffset:0;stroke-opacity:1" />
      <circle
         r="0.58465242"
         cy="143.30542"
         cx="154.68675"
         id="path1136-4-503"
         style="opacity:1;fill:#333333;fill-opacity:1;stroke:#000000;stroke-width:0;stroke-linecap:round;stroke-linejoin:round;stroke-miterlimit:4;stroke-dasharray:none;stroke-dashoffset:0;stroke-opacity:1" />
    </g>
    <g
       id="g1447"
       style="fill:#333333"
       transform="translate(-137.24291,-42.228585)">
      <path
         id="path1340"
         transform="scale(0.26458333)"
         d="m 570.48438,503.80078 a 20.45559,20.45559 0 0 0 -20.45704,20.45508 20.45559,20.45559 0 0 0 20.45704,20.45703 20.45559,20.45559 0 0 0 20.45507,-20.45703 20.45559,20.45559 0 0 0 -20.45507,-20.45508 z m 0.0254,4.48242 a 16.036173,16.036173 0 0 1 16.03711,16.03711 16.036173,16.036173 0 0 1 -16.03711,16.03516 16.036173,16.036173 0 0 1 -16.03711,-16.03516 16.036173,16.036173 0 0 1 16.03711,-16.03711 z"
         style="opacity:1;fill:#333333;fill-opacity:1;stroke:#000000;stroke-width:0;stroke-linecap:round;stroke-linejoin:round;stroke-miterlimit:4;stroke-dasharray:none;stroke-dashoffset:0;stroke-opacity:1"
         inkscape:connector-curvature="0" />
      <rect
         ry="0.76503205"
         rx="0.61806077"
         y="127.61794"
         x="150.289"
         height="4.2596078"
         width="1.2361215"
         id="rect1358"
         style="opacity:1;fill:#333333;fill-opacity:1;stroke:#000000;stroke-width:0;stroke-linecap:round;stroke-linejoin:round;stroke-miterlimit:4;stroke-dasharray:none;stroke-dashoffset:0;stroke-opacity:1" />
      <rect
         ry="0.76503205"
         rx="0.61806077"
         y="145.60017"
         x="150.27229"
         height="4.2596083"
         width="1.2361215"
         id="rect1358-0"
         style="opacity:1;fill:#333333;fill-opacity:1;stroke:#000000;stroke-width:0;stroke-linecap:round;stroke-linejoin:round;stroke-miterlimit:4;stroke-dasharray:none;stroke-dashoffset:0;stroke-opacity:1" />
      <rect
         transform="matrix(-0.020812,-0.99978341,-0.99978341,0.020812,0,0)"
         ry="0.76503205"
         rx="0.61806077"
         y="-159.10397"
         x="-142.63615"
         height="4.2596083"
         width="1.2361215"
         id="rect1358-7"
         style="opacity:1;fill:#333333;fill-opacity:1;stroke:#000000;stroke-width:0;stroke-linecap:round;stroke-linejoin:round;stroke-miterlimit:4;stroke-dasharray:none;stroke-dashoffset:0;stroke-opacity:1" />
      <rect
         transform="matrix(-0.020812,-0.99978341,-0.99978341,0.020812,0,0)"
         ry="0.76503205"
         rx="0.61806077"
         y="-141.14154"
         x="-142.28795"
         height="4.2596083"
         width="1.2361215"
         id="rect1358-7-4"
         style="opacity:1;fill:#333333;fill-opacity:1;stroke:#000000;stroke-width:0;stroke-linecap:round;stroke-linejoin:round;stroke-miterlimit:4;stroke-dasharray:none;stroke-dashoffset:0;stroke-opacity:1" />
      <rect
         transform="matrix(-0.7378005,0.67501883,0.67501883,0.7378005,0,0)"
         ry="0.76503205"
         rx="0.61806077"
         y="193.09222"
         x="-17.867271"
         height="4.2596083"
         width="1.2361215"
         id="rect1358-7-3"
         style="opacity:1;fill:#333333;fill-opacity:1;stroke:#000000;stroke-width:0;stroke-linecap:round;stroke-linejoin:round;stroke-miterlimit:4;stroke-dasharray:none;stroke-dashoffset:0;stroke-opacity:1" />
      <rect
         transform="matrix(-0.73780049,0.67501884,0.67501884,0.73780049,0,0)"
         ry="0.76503205"
         rx="0.61806077"
         y="211.04541"
         x="-18.731941"
         height="4.2596083"
         width="1.2361215"
         id="rect1358-7-3-7"
         style="opacity:1;fill:#333333;fill-opacity:1;stroke:#000000;stroke-width:0;stroke-linecap:round;stroke-linejoin:round;stroke-miterlimit:4;stroke-dasharray:none;stroke-dashoffset:0;stroke-opacity:1" />
      <rect
         transform="matrix(0.67501884,0.73780049,0.73780049,-0.67501884,0,0)"
         ry="0.76503205"
         rx="0.61806077"
         y="24.599535"
         x="203.24541"
         height="4.2596083"
         width="1.2361215"
         id="rect1358-7-3-9"
         style="opacity:1;fill:#333333;fill-opacity:1;stroke:#000000;stroke-width:0;stroke-linecap:round;stroke-linejoin:round;stroke-miterlimit:4;stroke-dasharray:none;stroke-dashoffset:0;stroke-opacity:1" />
      <rect
         transform="matrix(0.67501884,0.73780049,0.73780049,-0.67501884,0,0)"
         ry="0.76503205"
         rx="0.61806077"
         y="6.541769"
         x="204.01439"
         height="4.2596083"
         width="1.2361215"
         id="rect1358-7-3-9-0"
         style="opacity:1;fill:#333333;fill-opacity:1;stroke:#000000;stroke-width:0;stroke-linecap:round;stroke-linejoin:round;stroke-miterlimit:4;stroke-dasharray:none;stroke-dashoffset:0;stroke-opacity:1" />
    </g>
  </g>
</svg>
