<?xml version="1.0" encoding="UTF-8" standalone="no"?>
<!-- Created with Inkscape (http://www.inkscape.org/) -->

<svg
   xmlns:dc="http://purl.org/dc/elements/1.1/"
   xmlns:cc="http://creativecommons.org/ns#"
   xmlns:rdf="http://www.w3.org/1999/02/22-rdf-syntax-ns#"
   xmlns:svg="http://www.w3.org/2000/svg"
   xmlns="http://www.w3.org/2000/svg"
   xmlns:sodipodi="http://sodipodi.sourceforge.net/DTD/sodipodi-0.dtd"
   xmlns:inkscape="http://www.inkscape.org/namespaces/inkscape"
   width="42.913433mm"
   height="34.38525mm"
   viewBox="0 0 42.913433 34.38525"
   version="1.1"
   id="svg8"
   inkscape:version="0.92.4 (5da689c313, 2019-01-14)"
   sodipodi:docname="weatherLogoDrawer.svg">
  <defs
     id="defs2" />
  <sodipodi:namedview
     id="base"
     pagecolor="#ffffff"
     bordercolor="#666666"
     borderopacity="1.0"
     inkscape:pageopacity="0.0"
     inkscape:pageshadow="2"
     inkscape:zoom="0.98994949"
     inkscape:cx="-68.678903"
     inkscape:cy="87.171541"
     inkscape:document-units="mm"
     inkscape:current-layer="layer1"
     showgrid="false"
     inkscape:window-width="1095"
     inkscape:window-height="629"
     inkscape:window-x="695"
     inkscape:window-y="49"
     inkscape:window-maximized="0" />
  <metadata
     id="metadata5">
    <rdf:RDF>
      <cc:Work
         rdf:about="">
        <dc:format>image/svg+xml</dc:format>
        <dc:type
           rdf:resource="http://purl.org/dc/dcmitype/StillImage" />
        <dc:title></dc:title>
      </cc:Work>
    </rdf:RDF>
  </metadata>
  <g
     inkscape:label="Layer 1"
     inkscape:groupmode="layer"
     id="layer1"
     transform="translate(-40.534523,-143.80437)">
    <circle
       style="opacity:1;fill:#ffd42a;fill-opacity:1;stroke:#000000;stroke-width:0;stroke-linecap:round;stroke-linejoin:round;stroke-miterlimit:4;stroke-dasharray:none;stroke-dashoffset:0;stroke-opacity:1"
       id="path829"
       cx="-168.67525"
       cy="128.24097"
       r="28.39546" />
    <flowRoot
       xml:space="preserve"
       id="flowRoot815"
       style="font-style:normal;font-variant:normal;font-weight:normal;font-stretch:normal;font-size:40px;line-height:1.02499998;font-family:'Kaushan Script';-inkscape-font-specification:'Kaushan Script, Normal';font-variant-ligatures:normal;font-variant-caps:normal;font-variant-numeric:normal;font-feature-settings:normal;text-align:start;letter-spacing:0px;word-spacing:0px;writing-mode:lr-tb;text-anchor:start;fill:#1a1a1a;fill-opacity:1;stroke:none"
       transform="matrix(0.26458333,0,0,0.26458333,-225.04094,41.159506)"><flowRegion
         id="flowRegion817"
         style="font-style:normal;font-variant:normal;font-weight:normal;font-stretch:normal;font-size:40px;line-height:1.02499998;font-family:'Kaushan Script';-inkscape-font-specification:'Kaushan Script, Normal';font-variant-ligatures:normal;font-variant-caps:normal;font-variant-numeric:normal;font-feature-settings:normal;text-align:start;writing-mode:lr-tb;text-anchor:start;fill:#1a1a1a"><rect
           id="rect819"
           width="505.71429"
           height="628.57141"
           x="137.14285"
           y="271.09113"
           style="font-style:normal;font-variant:normal;font-weight:normal;font-stretch:normal;font-size:40px;line-height:1.02499998;font-family:'Kaushan Script';-inkscape-font-specification:'Kaushan Script, Normal';font-variant-ligatures:normal;font-variant-caps:normal;font-variant-numeric:normal;font-feature-settings:normal;text-align:start;writing-mode:lr-tb;text-anchor:start;fill:#1a1a1a" /></flowRegion><flowPara
         id="flowPara821">it's always</flowPara><flowPara
         id="flowPara823">sunny in </flowPara><flowPara
         id="flowPara825">Kaspiysk</flowPara><flowPara
         id="flowPara827" /></flowRoot>    <circle
       style="opacity:1;fill:#1f4e5d;fill-opacity:1;stroke:#000000;stroke-width:0;stroke-linecap:round;stroke-linejoin:round;stroke-miterlimit:4;stroke-dasharray:none;stroke-dashoffset:0;stroke-opacity:1"
       id="path829-8"
       cx="-101.25375"
       cy="130.46158"
       r="28.39546" />
    <flowRoot
       transform="matrix(0.26458333,0,0,0.26458333,-157.61944,43.380123)"
       xml:space="preserve"
       id="flowRoot815-9"
       style="font-style:normal;font-variant:normal;font-weight:normal;font-stretch:normal;font-size:40px;line-height:1.02499998;font-family:'Kaushan Script';-inkscape-font-specification:'Kaushan Script, Normal';font-variant-ligatures:normal;font-variant-caps:normal;font-variant-numeric:normal;font-feature-settings:normal;text-align:start;letter-spacing:0px;word-spacing:0px;writing-mode:lr-tb;text-anchor:start;fill:#ffffff;fill-opacity:1;stroke:none"><flowRegion
         id="flowRegion817-5"
         style="font-style:normal;font-variant:normal;font-weight:normal;font-stretch:normal;font-size:40px;line-height:1.02499998;font-family:'Kaushan Script';-inkscape-font-specification:'Kaushan Script, Normal';font-variant-ligatures:normal;font-variant-caps:normal;font-variant-numeric:normal;font-feature-settings:normal;text-align:start;writing-mode:lr-tb;text-anchor:start;fill:#ffffff"><rect
           id="rect819-6"
           width="505.71429"
           height="628.57141"
           x="137.14285"
           y="271.09113"
           style="font-style:normal;font-variant:normal;font-weight:normal;font-stretch:normal;font-size:40px;line-height:1.02499998;font-family:'Kaushan Script';-inkscape-font-specification:'Kaushan Script, Normal';font-variant-ligatures:normal;font-variant-caps:normal;font-variant-numeric:normal;font-feature-settings:normal;text-align:start;writing-mode:lr-tb;text-anchor:start;fill:#ffffff" /></flowRegion><flowPara
         id="flowPara821-5">it's always</flowPara><flowPara
         id="flowPara823-1">sunny in </flowPara><flowPara
         id="flowPara825-6">Kaspiysk</flowPara><flowPara
         id="flowPara827-5" /></flowRoot>    <g
       id="g4722">
      <path
         style="opacity:1;fill:#ffc54a;fill-opacity:1;stroke:#000000;stroke-width:0;stroke-linecap:round;stroke-linejoin:round;stroke-miterlimit:4;stroke-dasharray:none;stroke-dashoffset:0;stroke-opacity:1"
         d="M 72.734388,161.25951 A 12.142485,12.142485 0 0 1 60.591904,173.40199 12.142485,12.142485 0 0 1 48.449419,161.25951 12.142485,12.142485 0 0 1 60.591904,149.11702 12.142485,12.142485 0 0 1 72.734388,161.25951 Z"
         id="path829-1"
         inkscape:connector-curvature="0" />
      <g
         aria-label="it's always
sunny in 
Kaspiysk
"
         transform="matrix(0.26458333,0,0,0.26458333,4.0372161,72.855122)"
         style="font-style:normal;font-variant:normal;font-weight:normal;font-stretch:normal;font-size:40px;line-height:1.02499998;font-family:'Kaushan Script';-inkscape-font-specification:'Kaushan Script, Normal';font-variant-ligatures:normal;font-variant-caps:normal;font-variant-numeric:normal;font-feature-settings:normal;text-align:start;letter-spacing:0px;word-spacing:0px;writing-mode:lr-tb;text-anchor:start;fill:#1a1a1a;fill-opacity:1;stroke:none"
         id="flowRoot815-4">
        <path
           d="m 141.06258,298.79464 q 0,-0.36 0.04,-0.88 0.08,-0.56 0.24,-1.44 0.16,-0.92 0.4,-2.2 0.28,-1.28 0.68,-3.08 0.08,-0.4 0.36,-1.28 0.28,-0.88 0.72,-1.84 0.48,-1 1.12,-1.92 0.68,-0.92 1.6,-1.36 0.68,0.16 1.8,0.84 1.12,0.64 1.92,1.8 -0.92,1.04 -1.56,2.08 -0.6,1.04 -1.12,2.16 -0.48,1.12 -0.92,2.32 -0.4,1.2 -0.92,2.52 -0.44,1.12 -0.8,2.32 -0.36,1.16 -0.4,2.04 0,0.72 -0.04,1 0,0.32 -0.2,0.32 -0.16,0 -0.64,-0.2 -0.48,-0.2 -1,-0.6 -0.48,-0.44 -0.88,-1.08 -0.4,-0.64 -0.4,-1.52 z m 7.64,-17.36 q 0,-0.24 0.12,-0.72 -0.2,-0.2 -0.36,-0.6 -0.12,-0.4 -0.12,-0.72 0,-0.36 0.08,-0.96 0.12,-0.64 0.28,-1.36 0.16,-0.72 0.4,-1.48 0.24,-0.8 0.48,-1.44 0.48,0 1.16,0.28 0.72,0.24 1.44,0.68 0.72,0.4 1.32,0.92 0.6,0.48 0.92,0.92 -0.44,0.44 -1.16,1.24 -0.72,0.76 -1.4,1.64 -0.68,0.84 -1.24,1.6 -0.56,0.76 -0.72,1.08 -0.48,-0.08 -0.84,-0.4 -0.36,-0.36 -0.36,-0.68 z"
           id="path4617"
           inkscape:connector-curvature="0" />
        <path
           d="m 152.5232,286.15464 q -0.2,-0.24 -0.36,-1 -0.16,-0.8 -0.16,-1.36 1.04,0.08 2,0.16 0.96,0.04 1.76,0.08 0.6,-1.2 1.28,-2.36 0.72,-1.2 1.36,-2.16 0.68,-1 1.24,-1.68 0.6,-0.68 0.92,-0.88 0.4,0 1,0.16 0.64,0.12 1.28,0.36 0.64,0.2 1.16,0.44 0.52,0.24 0.72,0.48 -1.2,1.52 -2.08,2.84 -0.84,1.28 -1.84,2.96 0.8,0 1.6,-0.04 0.84,-0.04 1.68,-0.12 0.2,0.2 0.32,0.52 0.12,0.28 0.12,0.6 -1.96,0.72 -4.76,0.8 -1,1.92 -1.8,3.84 -0.76,1.88 -1.32,3.64 -0.52,1.76 -0.84,3.32 -0.28,1.56 -0.28,2.8 0,1.76 1.32,1.96 1.2,-0.16 2.28,-0.6 1.08,-0.44 1.92,-1.12 0.24,0.36 0.28,0.6 -0.24,0.36 -0.84,0.84 -0.56,0.48 -1.24,0.92 -0.68,0.48 -1.32,0.8 -0.64,0.32 -0.96,0.36 -1,-0.04 -2,-0.44 -1,-0.4 -1.84,-1 -0.8,-0.6 -1.32,-1.32 -0.52,-0.76 -0.52,-1.48 0,-0.96 0.24,-2.4 0.28,-1.48 0.76,-3.2 0.48,-1.72 1.12,-3.6 0.64,-1.88 1.4,-3.72 z"
           id="path4619"
           inkscape:connector-curvature="0" />
        <path
           d="m 170.1457,281.19464 q -0.24,-0.2 -0.44,-0.64 -0.2,-0.44 -0.2,-0.88 0.48,-1.4 0.88,-3.2 0.44,-1.84 0.44,-4.08 0,-1 -0.12,-2.04 -0.08,-1.04 -0.36,-2.2 1.92,0.12 3.48,0.84 1.6,0.68 2.12,1.68 -0.68,3.64 -2.08,6.32 -1.4,2.68 -3.72,4.2 z"
           id="path4621"
           inkscape:connector-curvature="0" />
        <path
           d="m 185.13508,285.55464 q -0.04,0.76 -0.28,1.6 -0.2,0.8 -0.52,1.48 -0.32,0.64 -0.68,1.08 -0.36,0.44 -0.68,0.44 -0.44,-0.04 -0.52,-0.6 0,-0.12 0.08,-0.36 0.12,-0.28 0.24,-0.6 0.12,-0.32 0.2,-0.64 0.12,-0.32 0.12,-0.56 0,-0.56 -0.28,-0.92 -0.24,-0.4 -0.68,-0.4 -1.6,0 -2.44,2 -0.84,2 -0.84,5.88 0,0.4 0.04,0.48 0.84,-0.04 1.48,-0.04 0.68,-0.04 1.32,-0.04 0.04,0.08 0.04,0.32 0,0.36 -0.16,0.52 -0.92,0.2 -1.48,0.36 -0.52,0.12 -0.8,0.24 -0.28,0.12 -0.36,0.28 -0.04,0.12 -0.04,0.36 0,0.32 0,0.64 0.04,0.32 0.04,0.8 0,3.36 -1.84,5.4 -1.8,2.04 -5.04,2.36 -0.56,-0.04 -1.16,-0.32 -0.6,-0.28 -1.16,-0.72 -0.52,-0.44 -0.92,-1 -0.4,-0.52 -0.56,-1.08 0,-1.52 0.64,-2.88 0.64,-1.4 1.72,-2.44 1.12,-1.08 2.6,-1.72 1.52,-0.68 3.28,-0.8 0,-1 -0.2,-1.96 -0.2,-0.96 -0.44,-1.84 -0.2,-0.92 -0.4,-1.76 -0.2,-0.88 -0.2,-1.72 0,-1.08 0.44,-2.12 0.44,-1.08 1.16,-1.96 0.72,-0.92 1.68,-1.56 0.96,-0.64 2,-0.88 0.44,0.12 1.16,0.72 0.76,0.56 1.48,1.28 0.72,0.72 1.28,1.48 0.56,0.72 0.68,1.2 z m -13.2,18.24 q 0.96,-0.4 1.8,-1.16 0.88,-0.76 1.52,-1.72 0.64,-0.96 1,-2.04 0.4,-1.08 0.4,-2.12 -0.8,0.12 -1.76,0.76 -0.96,0.6 -1.8,1.48 -0.84,0.84 -1.4,1.76 -0.56,0.92 -0.56,1.6 0,0.88 0.8,1.44 z"
           id="path4623"
           inkscape:connector-curvature="0" />
        <path
           d="m 208.49445,285.31464 q 0.4,0 0.92,0.16 0.56,0.12 1,0.36 0.44,0.2 0.72,0.44 0.32,0.24 0.32,0.44 -0.8,1.68 -1.48,3.4 -0.68,1.68 -1.16,3.24 -0.48,1.56 -0.76,2.92 -0.24,1.36 -0.24,2.36 0,1.12 0.24,1.88 0.24,0.72 0.8,1.04 -0.48,0.32 -1.24,0.52 -0.76,0.2 -1.36,0.2 -2.16,0 -2.16,-2.96 0,-2.28 1.52,-6.24 -0.8,1.84 -1.84,3.48 -1.04,1.6 -2.12,2.84 -1.08,1.24 -2.2,2.04 -1.08,0.76 -2,0.92 -1.48,-0.08 -2.4,-1.4 -0.92,-1.36 -0.92,-3.44 0,-2.24 0.96,-4.72 0.96,-2.48 2.44,-4.6 1.52,-2.12 3.28,-3.52 1.76,-1.44 3.4,-1.52 0.4,0.12 0.88,0.48 0.52,0.36 0.96,0.84 0.48,0.48 0.8,1 0.32,0.48 0.36,0.84 -1.6,0.24 -3.32,1.56 -1.68,1.32 -3.08,3.2 -1.36,1.84 -2.24,3.96 -0.88,2.12 -0.88,3.96 0,0.76 0.56,0.96 1.16,-0.24 2.68,-1.96 1.52,-1.76 3.68,-5.4 0.4,-0.72 0.88,-1.6 0.52,-0.88 1.04,-1.84 0.52,-0.96 1,-1.92 0.52,-1 0.96,-1.92 z"
           id="path4625"
           inkscape:connector-curvature="0" />
        <path
           d="m 213.48258,298.91464 q 0,-1.76 0.84,-4.92 0.84,-3.2 2.36,-7.44 2.48,-6.76 4.64,-11.24 2.2,-4.52 4.28,-7.04 0.48,0.08 1.16,0.4 0.72,0.32 1.4,0.72 0.68,0.36 1.2,0.76 0.56,0.4 0.72,0.64 -3.12,3.68 -5.48,7.92 -2.36,4.24 -4.32,9.72 -1.68,4.72 -2.56,8.52 -0.88,3.76 -0.88,6.28 0,0.68 0,0.84 0,0.16 0.04,0.32 -0.56,-0.08 -0.96,-0.28 -0.4,-0.2 -0.52,-0.48 -0.08,-0.2 -0.44,-0.6 -0.36,-0.36 -0.64,-0.56 -0.36,-0.24 -0.6,-1.24 -0.24,-1.04 -0.24,-2.32 z"
           id="path4627"
           inkscape:connector-curvature="0" />
        <path
           d="m 223.10133,299.83464 q 0,-0.8 0.16,-2.24 0.2,-1.44 0.48,-3.12 0.32,-1.68 0.68,-3.44 0.4,-1.76 0.8,-3.16 0.52,-1.88 1.6,-2.88 1.12,-1.04 2.76,-1.04 0.88,0 1.72,0.28 0.88,0.28 1.04,0.72 -1.16,0.96 -1.88,2.4 -0.68,1.4 -1.12,3.04 -0.4,1.6 -0.64,3.32 -0.2,1.68 -0.44,3.16 1.32,-1.76 2.48,-3.16 1.2,-1.44 2.12,-2.28 1.24,-1.16 1.68,-1.92 0.44,-0.8 0.76,-1.72 0.24,-0.72 0.56,-1.68 0.36,-0.96 1.16,-1.76 0.16,-0.04 0.68,-0.04 0.4,0 0.84,0.04 0.48,0.04 0.88,0.16 0.4,0.12 0.68,0.28 0.28,0.16 0.32,0.4 -0.64,0.84 -1.2,2.64 -0.56,1.76 -1,3.88 -0.44,2.12 -0.8,4.24 -0.36,2.08 -0.64,3.52 0.16,-0.08 0.72,-0.64 0.56,-0.56 1.24,-1.4 0.72,-0.84 1.48,-1.84 0.8,-1 1.4,-1.96 0.76,-1.16 1.24,-2.16 0.52,-1.04 0.88,-2.2 0.4,-1.16 0.72,-2.56 0.32,-1.44 0.68,-3.4 0.24,-0.32 1.04,-0.52 0.84,-0.24 1.52,-0.24 0.6,0 0.88,0.2 -0.2,2.24 -0.76,4 -0.52,1.76 -1.44,3.44 -0.92,1.64 -2.28,3.32 -1.36,1.64 -3.2,3.6 -0.76,0.8 -1.68,1.76 -0.88,0.96 -1.76,1.8 -0.84,0.8 -1.6,1.36 -0.72,0.56 -1.12,0.56 -0.92,0 -1.52,-0.72 -0.6,-0.72 -0.6,-1.84 0,-1.16 0.08,-2 0.12,-0.88 0.36,-1.84 0.24,-0.88 0.36,-1.48 0.16,-0.6 0.24,-1.04 0.12,-0.44 0.16,-0.76 0.04,-0.32 0.08,-0.64 -0.32,0.16 -0.84,0.68 -0.52,0.48 -1.08,1.16 -0.56,0.64 -1.12,1.32 -0.56,0.68 -0.92,1.16 -0.76,1.04 -1.32,1.84 -0.56,0.8 -1.08,1.52 -0.48,0.72 -0.96,1.48 -0.48,0.72 -1.12,1.56 -1.28,-0.4 -1.84,-1.2 -0.52,-0.8 -0.52,-1.96 z"
           id="path4629"
           inkscape:connector-curvature="0" />
        <path
           d="m 261.93195,285.31464 q 0.4,0 0.92,0.16 0.56,0.12 1,0.36 0.44,0.2 0.72,0.44 0.32,0.24 0.32,0.44 -0.8,1.68 -1.48,3.4 -0.68,1.68 -1.16,3.24 -0.48,1.56 -0.76,2.92 -0.24,1.36 -0.24,2.36 0,1.12 0.24,1.88 0.24,0.72 0.8,1.04 -0.48,0.32 -1.24,0.52 -0.76,0.2 -1.36,0.2 -2.16,0 -2.16,-2.96 0,-2.28 1.52,-6.24 -0.8,1.84 -1.84,3.48 -1.04,1.6 -2.12,2.84 -1.08,1.24 -2.2,2.04 -1.08,0.76 -2,0.92 -1.48,-0.08 -2.4,-1.4 -0.92,-1.36 -0.92,-3.44 0,-2.24 0.96,-4.72 0.96,-2.48 2.44,-4.6 1.52,-2.12 3.28,-3.52 1.76,-1.44 3.4,-1.52 0.4,0.12 0.88,0.48 0.52,0.36 0.96,0.84 0.48,0.48 0.8,1 0.32,0.48 0.36,0.84 -1.6,0.24 -3.32,1.56 -1.68,1.32 -3.08,3.2 -1.36,1.84 -2.24,3.96 -0.88,2.12 -0.88,3.96 0,0.76 0.56,0.96 1.16,-0.24 2.68,-1.96 1.52,-1.76 3.68,-5.4 0.4,-0.72 0.88,-1.6 0.52,-0.88 1.04,-1.84 0.52,-0.96 1,-1.92 0.52,-1 0.96,-1.92 z"
           id="path4631"
           inkscape:connector-curvature="0" />
        <path
           d="m 281.84383,295.27464 q -0.92,2.92 -1.84,5.32 -0.92,2.4 -1.96,4.4 -1.04,2.04 -2.24,3.72 -1.2,1.72 -2.64,3.24 -1.84,1.92 -3.8,2.92 -1.96,1.04 -3.92,1.04 -1,0 -2,-0.24 -0.96,-0.2 -1.8,-0.6 -0.88,-0.36 -1.52,-0.88 -0.68,-0.48 -0.96,-1.04 0,-0.48 0.56,-0.84 0.48,0.44 0.8,0.68 0.32,0.24 0.64,0.4 0.28,0.16 0.64,0.2 0.32,0.04 0.76,0.04 2.28,0 4.44,-1.36 2.2,-1.32 4.12,-3.8 1.96,-2.44 3.56,-5.96 1.6,-3.48 2.72,-7.8 -0.52,0.8 -1.28,1.96 -0.76,1.16 -1.68,2.32 -0.92,1.12 -1.92,2.04 -0.96,0.92 -1.88,1.24 -0.64,-0.04 -1.36,-0.28 -0.68,-0.2 -1.32,-0.6 -0.6,-0.4 -1.08,-0.96 -0.48,-0.56 -0.64,-1.28 0,-1.16 0.08,-1.84 0.08,-0.72 0.28,-1.56 0.36,-1.52 1.04,-3.44 0.72,-1.92 1.64,-3.76 0.96,-1.88 2.08,-3.48 1.16,-1.64 2.4,-2.56 0.32,0 0.8,0.08 0.48,0.04 1,0.2 0.52,0.16 1,0.4 0.48,0.2 0.84,0.56 -0.44,0.4 -1.92,2.68 -1.48,2.28 -3.28,6.56 -0.2,0.44 -0.48,1.28 -0.28,0.84 -0.56,1.76 -0.24,0.92 -0.44,1.8 -0.2,0.88 -0.2,1.4 0,0.32 0.08,0.48 0.12,0.16 0.2,0.24 0.72,-0.12 1.92,-1.16 1.2,-1.08 2.72,-3.32 0.96,-1.44 1.76,-2.84 0.8,-1.44 1.56,-2.88 0.8,-1.44 1.64,-2.96 0.84,-1.52 1.8,-3.12 0.52,0 1.12,0.12 0.6,0.12 1.16,0.32 0.56,0.16 0.96,0.4 0.44,0.2 0.64,0.44 -1.24,2.64 -2.32,5.16 -1.08,2.52 -1.92,5.16 z"
           id="path4633"
           inkscape:connector-curvature="0" />
        <path
           d="m 300.13508,285.55464 q -0.04,0.76 -0.28,1.6 -0.2,0.8 -0.52,1.48 -0.32,0.64 -0.68,1.08 -0.36,0.44 -0.68,0.44 -0.44,-0.04 -0.52,-0.6 0,-0.12 0.08,-0.36 0.12,-0.28 0.24,-0.6 0.12,-0.32 0.2,-0.64 0.12,-0.32 0.12,-0.56 0,-0.56 -0.28,-0.92 -0.24,-0.4 -0.68,-0.4 -1.6,0 -2.44,2 -0.84,2 -0.84,5.88 0,0.4 0.04,0.48 0.84,-0.04 1.48,-0.04 0.68,-0.04 1.32,-0.04 0.04,0.08 0.04,0.32 0,0.36 -0.16,0.52 -0.92,0.2 -1.48,0.36 -0.52,0.12 -0.8,0.24 -0.28,0.12 -0.36,0.28 -0.04,0.12 -0.04,0.36 0,0.32 0,0.64 0.04,0.32 0.04,0.8 0,3.36 -1.84,5.4 -1.8,2.04 -5.04,2.36 -0.56,-0.04 -1.16,-0.32 -0.6,-0.28 -1.16,-0.72 -0.52,-0.44 -0.92,-1 -0.4,-0.52 -0.56,-1.08 0,-1.52 0.64,-2.88 0.64,-1.4 1.72,-2.44 1.12,-1.08 2.6,-1.72 1.52,-0.68 3.28,-0.8 0,-1 -0.2,-1.96 -0.2,-0.96 -0.44,-1.84 -0.2,-0.92 -0.4,-1.76 -0.2,-0.88 -0.2,-1.72 0,-1.08 0.44,-2.12 0.44,-1.08 1.16,-1.96 0.72,-0.92 1.68,-1.56 0.96,-0.64 2,-0.88 0.44,0.12 1.16,0.72 0.76,0.56 1.48,1.28 0.72,0.72 1.28,1.48 0.56,0.72 0.68,1.2 z m -13.2,18.24 q 0.96,-0.4 1.8,-1.16 0.88,-0.76 1.52,-1.72 0.64,-0.96 1,-2.04 0.4,-1.08 0.4,-2.12 -0.8,0.12 -1.76,0.76 -0.96,0.6 -1.8,1.48 -0.84,0.84 -1.4,1.76 -0.56,0.92 -0.56,1.6 0,0.88 0.8,1.44 z"
           id="path4635"
           inkscape:connector-curvature="0" />
        <path
           d="m 154.82258,326.55464 q -0.04,0.76 -0.28,1.6 -0.2,0.8 -0.52,1.48 -0.32,0.64 -0.68,1.08 -0.36,0.44 -0.68,0.44 -0.44,-0.04 -0.52,-0.6 0,-0.12 0.08,-0.36 0.12,-0.28 0.24,-0.6 0.12,-0.32 0.2,-0.64 0.12,-0.32 0.12,-0.56 0,-0.56 -0.28,-0.92 -0.24,-0.4 -0.68,-0.4 -1.6,0 -2.44,2 -0.84,2 -0.84,5.88 0,0.4 0.04,0.48 0.84,-0.04 1.48,-0.04 0.68,-0.04 1.32,-0.04 0.04,0.08 0.04,0.32 0,0.36 -0.16,0.52 -0.92,0.2 -1.48,0.36 -0.52,0.12 -0.8,0.24 -0.28,0.12 -0.36,0.28 -0.04,0.12 -0.04,0.36 0,0.32 0,0.64 0.04,0.32 0.04,0.8 0,3.36 -1.84,5.4 -1.8,2.04 -5.04,2.36 -0.56,-0.04 -1.16,-0.32 -0.6,-0.28 -1.16,-0.72 -0.52,-0.44 -0.92,-1 -0.4,-0.52 -0.56,-1.08 0,-1.52 0.64,-2.88 0.64,-1.4 1.72,-2.44 1.12,-1.08 2.6,-1.72 1.52,-0.68 3.28,-0.8 0,-1 -0.2,-1.96 -0.2,-0.96 -0.44,-1.84 -0.2,-0.92 -0.4,-1.76 -0.2,-0.88 -0.2,-1.72 0,-1.08 0.44,-2.12 0.44,-1.08 1.16,-1.96 0.72,-0.92 1.68,-1.56 0.96,-0.64 2,-0.88 0.44,0.12 1.16,0.72 0.76,0.56 1.48,1.28 0.72,0.72 1.28,1.48 0.56,0.72 0.68,1.2 z m -13.2,18.24 q 0.96,-0.4 1.8,-1.16 0.88,-0.76 1.52,-1.72 0.64,-0.96 1,-2.04 0.4,-1.08 0.4,-2.12 -0.8,0.12 -1.76,0.76 -0.96,0.6 -1.8,1.48 -0.84,0.84 -1.4,1.76 -0.56,0.92 -0.56,1.6 0,0.88 0.8,1.44 z"
           id="path4637"
           inkscape:connector-curvature="0" />
        <path
           d="m 165.7307,341.59464 q -0.76,-0.64 -1.04,-1.6 -0.24,-0.96 -0.24,-1.64 0,-0.84 0.2,-1.44 -0.16,0 -0.72,0.64 -0.56,0.64 -1.24,1.52 -0.64,0.88 -1.28,1.72 -0.64,0.84 -0.96,1.24 -0.52,0.56 -1,0.88 -0.44,0.32 -0.72,0.36 -0.64,-0.04 -1.36,-0.28 -0.68,-0.2 -1.32,-0.6 -0.6,-0.4 -1.08,-0.96 -0.44,-0.56 -0.6,-1.28 0,-1.12 0.04,-1.84 0.08,-0.72 0.28,-1.56 0.36,-1.52 1.04,-3.44 0.72,-1.92 1.64,-3.76 0.92,-1.88 2.04,-3.48 1.16,-1.64 2.44,-2.56 0.36,0 0.84,0.08 0.48,0.04 0.96,0.2 0.52,0.16 0.96,0.4 0.48,0.2 0.8,0.56 -0.36,0.4 -1.84,2.68 -1.44,2.28 -3.24,6.56 -0.2,0.44 -0.48,1.28 -0.28,0.84 -0.56,1.76 -0.28,0.92 -0.48,1.8 -0.16,0.88 -0.16,1.4 0,0.32 0.08,0.48 0.12,0.16 0.2,0.24 0.6,-0.24 1.52,-1.32 0.92,-1.08 2.56,-3.32 0.4,-0.56 0.92,-1.28 0.56,-0.72 1.12,-1.52 0.56,-0.84 1.04,-1.72 0.52,-0.88 0.84,-1.76 0.16,-0.48 0.4,-1.12 0.28,-0.68 0.64,-1.4 0.4,-0.72 0.88,-1.44 0.52,-0.76 1.2,-1.4 0.52,0 1.12,0.12 0.6,0.12 1.12,0.32 0.56,0.16 0.96,0.4 0.4,0.2 0.6,0.44 -0.72,1.76 -1.6,3.48 -0.88,1.72 -1.64,3.4 -0.76,1.64 -1.28,3.28 -0.52,1.64 -0.52,3.2 0,0.84 0.12,1.48 0.16,0.6 0.32,1.04 0.16,0.4 0.28,0.68 0.16,0.28 0.16,0.48 0,0.04 -0.08,0.12 -0.04,0.04 -0.08,0.04 -0.28,0 -0.72,-0.12 -0.44,-0.12 -1,-0.36 -0.52,-0.2 -1.08,-0.48 -0.52,-0.28 -1,-0.6 z"
           id="path4639"
           inkscape:connector-curvature="0" />
        <path
           d="m 181.09633,323.07464 q 1.04,0.32 1.96,1.44 0.92,1.08 1.36,2.4 -0.44,1.08 -1.36,2.6 -0.92,1.52 -1.84,3.12 -0.92,1.56 -1.68,3 -0.72,1.4 -0.84,2.32 0.64,-0.68 1.4,-1.56 0.8,-0.92 1.52,-1.8 0.76,-0.92 1.4,-1.64 0.64,-0.76 1,-1.12 0.76,-0.8 1.8,-1.84 1.04,-1.08 2.16,-2 1.16,-0.96 2.32,-1.6 1.16,-0.68 2.12,-0.68 1.04,0 1.72,0.72 0.72,0.68 1.12,1.44 0,0.08 -0.32,0.24 -0.28,0.12 -0.84,0.76 -0.56,0.72 -1.28,2 -0.68,1.24 -1.36,2.72 -0.64,1.44 -1.08,2.96 -0.44,1.52 -0.44,2.76 0,1 0.24,1.28 0.28,0.28 0.76,0.28 0.44,0 0.92,-0.2 0.48,-0.2 0.76,-0.2 0.16,0.08 0.24,0.36 0.12,0.24 0.12,0.44 -0.32,0.28 -0.76,0.56 -0.44,0.28 -0.92,0.52 -0.48,0.24 -0.96,0.4 -0.44,0.16 -0.8,0.16 -1.16,0 -1.92,-0.36 -0.72,-0.32 -1.16,-0.88 -0.4,-0.56 -0.56,-1.32 -0.16,-0.8 -0.16,-1.68 0,-0.48 0.08,-1.08 0.08,-0.6 0.32,-1.4 0.24,-0.84 0.68,-1.96 0.44,-1.16 1.12,-2.76 -0.08,0 -1.08,0.56 -1,0.56 -2.16,1.72 -1.88,1.8 -3.4,3.56 -1.48,1.76 -3.04,3.92 -0.88,1.24 -1.56,2.08 -0.64,0.88 -1.12,1.16 -0.84,-0.48 -1.24,-1.36 -0.4,-0.84 -0.6,-1.76 0,-0.76 0.2,-1.92 0.24,-1.16 0.6,-2.56 0.4,-1.44 0.96,-3 0.56,-1.56 1.24,-3.12 1.52,-3.52 2.76,-5.52 1.28,-2 1.6,-2.16 z"
           id="path4641"
           inkscape:connector-curvature="0" />
        <path
           d="m 202.65883,323.07464 q 1.04,0.32 1.96,1.44 0.92,1.08 1.36,2.4 -0.44,1.08 -1.36,2.6 -0.92,1.52 -1.84,3.12 -0.92,1.56 -1.68,3 -0.72,1.4 -0.84,2.32 0.64,-0.68 1.4,-1.56 0.8,-0.92 1.52,-1.8 0.76,-0.92 1.4,-1.64 0.64,-0.76 1,-1.12 0.76,-0.8 1.8,-1.84 1.04,-1.08 2.16,-2 1.16,-0.96 2.32,-1.6 1.16,-0.68 2.12,-0.68 1.04,0 1.72,0.72 0.72,0.68 1.12,1.44 0,0.08 -0.32,0.24 -0.28,0.12 -0.84,0.76 -0.56,0.72 -1.28,2 -0.68,1.24 -1.36,2.72 -0.64,1.44 -1.08,2.96 -0.44,1.52 -0.44,2.76 0,1 0.24,1.28 0.28,0.28 0.76,0.28 0.44,0 0.92,-0.2 0.48,-0.2 0.76,-0.2 0.16,0.08 0.24,0.36 0.12,0.24 0.12,0.44 -0.32,0.28 -0.76,0.56 -0.44,0.28 -0.92,0.52 -0.48,0.24 -0.96,0.4 -0.44,0.16 -0.8,0.16 -1.16,0 -1.92,-0.36 -0.72,-0.32 -1.16,-0.88 -0.4,-0.56 -0.56,-1.32 -0.16,-0.8 -0.16,-1.68 0,-0.48 0.08,-1.08 0.08,-0.6 0.32,-1.4 0.24,-0.84 0.68,-1.96 0.44,-1.16 1.12,-2.76 -0.08,0 -1.08,0.56 -1,0.56 -2.16,1.72 -1.88,1.8 -3.4,3.56 -1.48,1.76 -3.04,3.92 -0.88,1.24 -1.56,2.08 -0.64,0.88 -1.12,1.16 -0.84,-0.48 -1.24,-1.36 -0.4,-0.84 -0.6,-1.76 0,-0.76 0.2,-1.92 0.24,-1.16 0.6,-2.56 0.4,-1.44 0.96,-3 0.56,-1.56 1.24,-3.12 1.52,-3.52 2.76,-5.52 1.28,-2 1.6,-2.16 z"
           id="path4643"
           inkscape:connector-curvature="0" />
        <path
           d="m 232.78133,336.27464 q -0.92,2.92 -1.84,5.32 -0.92,2.4 -1.96,4.4 -1.04,2.04 -2.24,3.72 -1.2,1.72 -2.64,3.24 -1.84,1.92 -3.8,2.92 -1.96,1.04 -3.92,1.04 -1,0 -2,-0.24 -0.96,-0.2 -1.8,-0.6 -0.88,-0.36 -1.52,-0.88 -0.68,-0.48 -0.96,-1.04 0,-0.48 0.56,-0.84 0.48,0.44 0.8,0.68 0.32,0.24 0.64,0.4 0.28,0.16 0.64,0.2 0.32,0.04 0.76,0.04 2.28,0 4.44,-1.36 2.2,-1.32 4.12,-3.8 1.96,-2.44 3.56,-5.96 1.6,-3.48 2.72,-7.8 -0.52,0.8 -1.28,1.96 -0.76,1.16 -1.68,2.32 -0.92,1.12 -1.92,2.04 -0.96,0.92 -1.88,1.24 -0.64,-0.04 -1.36,-0.28 -0.68,-0.2 -1.32,-0.6 -0.6,-0.4 -1.08,-0.96 -0.48,-0.56 -0.64,-1.28 0,-1.16 0.08,-1.84 0.08,-0.72 0.28,-1.56 0.36,-1.52 1.04,-3.44 0.72,-1.92 1.64,-3.76 0.96,-1.88 2.08,-3.48 1.16,-1.64 2.4,-2.56 0.32,0 0.8,0.08 0.48,0.04 1,0.2 0.52,0.16 1,0.4 0.48,0.2 0.84,0.56 -0.44,0.4 -1.92,2.68 -1.48,2.28 -3.28,6.56 -0.2,0.44 -0.48,1.28 -0.28,0.84 -0.56,1.76 -0.24,0.92 -0.44,1.8 -0.2,0.88 -0.2,1.4 0,0.32 0.08,0.48 0.12,0.16 0.2,0.24 0.72,-0.12 1.92,-1.16 1.2,-1.08 2.72,-3.32 0.96,-1.44 1.76,-2.84 0.8,-1.44 1.56,-2.88 0.8,-1.44 1.64,-2.96 0.84,-1.52 1.8,-3.12 0.52,0 1.12,0.12 0.6,0.12 1.16,0.32 0.56,0.16 0.96,0.4 0.44,0.2 0.64,0.44 -1.24,2.64 -2.32,5.16 -1.08,2.52 -1.92,5.16 z"
           id="path4645"
           inkscape:connector-curvature="0" />
        <path
           d="m 246.84383,339.79464 q 0,-0.36 0.04,-0.88 0.08,-0.56 0.24,-1.44 0.16,-0.92 0.4,-2.2 0.28,-1.28 0.68,-3.08 0.08,-0.4 0.36,-1.28 0.28,-0.88 0.72,-1.84 0.48,-1 1.12,-1.92 0.68,-0.92 1.6,-1.36 0.68,0.16 1.8,0.84 1.12,0.64 1.92,1.8 -0.92,1.04 -1.56,2.08 -0.6,1.04 -1.12,2.16 -0.48,1.12 -0.92,2.32 -0.4,1.2 -0.92,2.52 -0.44,1.12 -0.8,2.32 -0.36,1.16 -0.4,2.04 0,0.72 -0.04,1 0,0.32 -0.2,0.32 -0.16,0 -0.64,-0.2 -0.48,-0.2 -1,-0.6 -0.48,-0.44 -0.88,-1.08 -0.4,-0.64 -0.4,-1.52 z m 7.64,-17.36 q 0,-0.24 0.12,-0.72 -0.2,-0.2 -0.36,-0.6 -0.12,-0.4 -0.12,-0.72 0,-0.36 0.08,-0.96 0.12,-0.64 0.28,-1.36 0.16,-0.72 0.4,-1.48 0.24,-0.8 0.48,-1.44 0.48,0 1.16,0.28 0.72,0.24 1.44,0.68 0.72,0.4 1.32,0.92 0.6,0.48 0.92,0.92 -0.44,0.44 -1.16,1.24 -0.72,0.76 -1.4,1.64 -0.68,0.84 -1.24,1.6 -0.56,0.76 -0.72,1.08 -0.48,-0.08 -0.84,-0.4 -0.36,-0.36 -0.36,-0.68 z"
           id="path4647"
           inkscape:connector-curvature="0" />
        <path
           d="m 262.73695,323.07464 q 1.04,0.32 1.96,1.44 0.92,1.08 1.36,2.4 -0.44,1.08 -1.36,2.6 -0.92,1.52 -1.84,3.12 -0.92,1.56 -1.68,3 -0.72,1.4 -0.84,2.32 0.64,-0.68 1.4,-1.56 0.8,-0.92 1.52,-1.8 0.76,-0.92 1.4,-1.64 0.64,-0.76 1,-1.12 0.76,-0.8 1.8,-1.84 1.04,-1.08 2.16,-2 1.16,-0.96 2.32,-1.6 1.16,-0.68 2.12,-0.68 1.04,0 1.72,0.72 0.72,0.68 1.12,1.44 0,0.08 -0.32,0.24 -0.28,0.12 -0.84,0.76 -0.56,0.72 -1.28,2 -0.68,1.24 -1.36,2.72 -0.64,1.44 -1.08,2.96 -0.44,1.52 -0.44,2.76 0,1 0.24,1.28 0.28,0.28 0.76,0.28 0.44,0 0.92,-0.2 0.48,-0.2 0.76,-0.2 0.16,0.08 0.24,0.36 0.12,0.24 0.12,0.44 -0.32,0.28 -0.76,0.56 -0.44,0.28 -0.92,0.52 -0.48,0.24 -0.96,0.4 -0.44,0.16 -0.8,0.16 -1.16,0 -1.92,-0.36 -0.72,-0.32 -1.16,-0.88 -0.4,-0.56 -0.56,-1.32 -0.16,-0.8 -0.16,-1.68 0,-0.48 0.08,-1.08 0.08,-0.6 0.32,-1.4 0.24,-0.84 0.68,-1.96 0.44,-1.16 1.12,-2.76 -0.08,0 -1.08,0.56 -1,0.56 -2.16,1.72 -1.88,1.8 -3.4,3.56 -1.48,1.76 -3.04,3.92 -0.88,1.24 -1.56,2.08 -0.64,0.88 -1.12,1.16 -0.84,-0.48 -1.24,-1.36 -0.4,-0.84 -0.6,-1.76 0,-0.76 0.2,-1.92 0.24,-1.16 0.6,-2.56 0.4,-1.44 0.96,-3 0.56,-1.56 1.24,-3.12 1.52,-3.52 2.76,-5.52 1.28,-2 1.6,-2.16 z"
           id="path4649"
           inkscape:connector-curvature="0" />
        <path
           d="m 150.50258,370.79464 q 2.48,-3.68 4.88,-6.76 2.44,-3.12 4.64,-5.36 2.2,-2.24 4.04,-3.48 1.84,-1.24 3.2,-1.24 0.52,0 1.12,0.4 0.64,0.4 1.16,1.04 0.56,0.64 0.92,1.4 0.36,0.72 0.36,1.4 -2.48,0.8 -4.88,2.12 -2.36,1.28 -4.56,3 -2.16,1.68 -4.16,3.76 -1.96,2.08 -3.56,4.44 0.64,1.64 1.56,3.52 0.96,1.84 2.08,3.6 1.12,1.72 2.4,3.2 1.28,1.48 2.6,2.36 -0.2,0.44 -0.68,0.84 -0.48,0.4 -1.04,0.72 -0.56,0.36 -1.2,0.56 -0.6,0.2 -1.12,0.2 -1.04,0 -1.92,-1 -0.88,-0.96 -1.8,-2.92 -0.88,-2 -1.88,-4.92 -0.96,-2.96 -2.16,-6.88 z m -6.04,15.92 q -1.52,-0.36 -2.52,-1.28 -1,-0.88 -1.84,-2.24 0.36,-0.76 0.84,-2 0.52,-1.24 1.24,-3.04 0.72,-1.84 1.72,-4.36 1,-2.56 2.32,-5.96 0.84,-2.16 1.36,-3.64 0.56,-1.48 0.92,-2.88 0.4,-1.44 0.76,-3.16 0.36,-1.72 0.84,-4.36 1.68,0.32 3.04,1.48 1.4,1.16 2.4,2.8 -0.44,0.56 -1.04,1.72 -0.56,1.12 -1.28,2.72 -0.72,1.6 -1.6,3.56 -0.88,1.96 -1.84,4.16 -2.16,4.8 -3.4,8.8 -1.24,3.96 -1.92,7.68 z"
           id="path4651"
           inkscape:connector-curvature="0" />
        <path
           d="m 178.9632,367.31464 q 0.4,0 0.92,0.16 0.56,0.12 1,0.36 0.44,0.2 0.72,0.44 0.32,0.24 0.32,0.44 -0.8,1.68 -1.48,3.4 -0.68,1.68 -1.16,3.24 -0.48,1.56 -0.76,2.92 -0.24,1.36 -0.24,2.36 0,1.12 0.24,1.88 0.24,0.72 0.8,1.04 -0.48,0.32 -1.24,0.52 -0.76,0.2 -1.36,0.2 -2.16,0 -2.16,-2.96 0,-2.28 1.52,-6.24 -0.8,1.84 -1.84,3.48 -1.04,1.6 -2.12,2.84 -1.08,1.24 -2.2,2.04 -1.08,0.76 -2,0.92 -1.48,-0.08 -2.4,-1.4 -0.92,-1.36 -0.92,-3.44 0,-2.24 0.96,-4.72 0.96,-2.48 2.44,-4.6 1.52,-2.12 3.28,-3.52 1.76,-1.44 3.4,-1.52 0.4,0.12 0.88,0.48 0.52,0.36 0.96,0.84 0.48,0.48 0.8,1 0.32,0.48 0.36,0.84 -1.6,0.24 -3.32,1.56 -1.68,1.32 -3.08,3.2 -1.36,1.84 -2.24,3.96 -0.88,2.12 -0.88,3.96 0,0.76 0.56,0.96 1.16,-0.24 2.68,-1.96 1.52,-1.76 3.68,-5.4 0.4,-0.72 0.88,-1.6 0.52,-0.88 1.04,-1.84 0.52,-0.96 1,-1.92 0.52,-1 0.96,-1.92 z"
           id="path4653"
           inkscape:connector-curvature="0" />
        <path
           d="m 197.79133,367.55464 q -0.04,0.76 -0.28,1.6 -0.2,0.8 -0.52,1.48 -0.32,0.64 -0.68,1.08 -0.36,0.44 -0.68,0.44 -0.44,-0.04 -0.52,-0.6 0,-0.12 0.08,-0.36 0.12,-0.28 0.24,-0.6 0.12,-0.32 0.2,-0.64 0.12,-0.32 0.12,-0.56 0,-0.56 -0.28,-0.92 -0.24,-0.4 -0.68,-0.4 -1.6,0 -2.44,2 -0.84,2 -0.84,5.88 0,0.4 0.04,0.48 0.84,-0.04 1.48,-0.04 0.68,-0.04 1.32,-0.04 0.04,0.08 0.04,0.32 0,0.36 -0.16,0.52 -0.92,0.2 -1.48,0.36 -0.52,0.12 -0.8,0.24 -0.28,0.12 -0.36,0.28 -0.04,0.12 -0.04,0.36 0,0.32 0,0.64 0.04,0.32 0.04,0.8 0,3.36 -1.84,5.4 -1.8,2.04 -5.04,2.36 -0.56,-0.04 -1.16,-0.32 -0.6,-0.28 -1.16,-0.72 -0.52,-0.44 -0.92,-1 -0.4,-0.52 -0.56,-1.08 0,-1.52 0.64,-2.88 0.64,-1.4 1.72,-2.44 1.12,-1.08 2.6,-1.72 1.52,-0.68 3.28,-0.8 0,-1 -0.2,-1.96 -0.2,-0.96 -0.44,-1.84 -0.2,-0.92 -0.4,-1.76 -0.2,-0.88 -0.2,-1.72 0,-1.08 0.44,-2.12 0.44,-1.08 1.16,-1.96 0.72,-0.92 1.68,-1.56 0.96,-0.64 2,-0.88 0.44,0.12 1.16,0.72 0.76,0.56 1.48,1.28 0.72,0.72 1.28,1.48 0.56,0.72 0.68,1.2 z m -13.2,18.24 q 0.96,-0.4 1.8,-1.16 0.88,-0.76 1.52,-1.72 0.64,-0.96 1,-2.04 0.4,-1.08 0.4,-2.12 -0.8,0.12 -1.76,0.76 -0.96,0.6 -1.8,1.48 -0.84,0.84 -1.4,1.76 -0.56,0.92 -0.56,1.6 0,0.88 0.8,1.44 z"
           id="path4655"
           inkscape:connector-curvature="0" />
        <path
           d="m 194.89945,396.71464 q -0.56,-0.16 -0.64,-1.2 -0.16,-0.52 -0.24,-1.24 -0.04,-0.72 -0.04,-1.64 0,-0.84 0.28,-2.32 0.28,-1.44 0.76,-3.28 0.52,-1.84 1.24,-3.96 0.72,-2.16 1.6,-4.36 1.08,-2.76 1.88,-4.76 0.8,-2.04 1.32,-3.52 0.56,-1.48 0.88,-2.44 0.36,-0.96 0.56,-1.64 0.16,-0.48 0.48,-1.16 0.32,-0.68 0.72,-1.36 0.44,-0.72 0.88,-1.32 0.44,-0.64 0.8,-0.96 1.4,0.2 2.64,0.72 1.24,0.52 1.52,1 -0.56,0.52 -1.28,1.64 -0.72,1.08 -1.4,2.4 -0.68,1.28 -1.24,2.64 -0.56,1.36 -0.84,2.4 0.4,-0.68 1.04,-1.48 0.64,-0.8 1.96,-2.2 1.48,-1.52 2.76,-2.32 1.32,-0.84 2.28,-0.84 1.52,0 2.48,0.84 1,0.84 1,2.16 0,2.88 -0.96,5.72 -0.96,2.8 -2.76,5.08 -0.68,0.88 -1.6,1.68 -0.92,0.8 -1.92,1.44 -1,0.6 -1.96,0.96 -0.96,0.36 -1.72,0.36 -0.72,0 -1.28,-0.28 -0.52,-0.32 -0.72,-0.76 1.56,-0.92 3.04,-2.56 1.48,-1.64 2.72,-3.76 1.28,-2.16 2.2,-4.64 0.96,-2.48 1.44,-5.04 -1.52,0.8 -2.76,1.76 -1.2,0.92 -2.4,2.44 -1.44,1.76 -2.28,2.84 -0.84,1.08 -1.4,1.84 -0.52,0.76 -0.88,1.44 -0.32,0.64 -0.72,1.6 -0.56,1.28 -1.32,3.4 -0.72,2.08 -1.52,4.68 -0.76,2.6 -1.56,5.52 -0.76,2.96 -1.48,5.88 -0.44,-0.08 -0.76,-0.64 -0.32,-0.36 -0.48,-0.52 -0.12,-0.16 -0.32,-0.24 z"
           id="path4657"
           inkscape:connector-curvature="0" />
        <path
           d="m 217.78133,380.79464 q 0,-0.36 0.04,-0.88 0.08,-0.56 0.24,-1.44 0.16,-0.92 0.4,-2.2 0.28,-1.28 0.68,-3.08 0.08,-0.4 0.36,-1.28 0.28,-0.88 0.72,-1.84 0.48,-1 1.12,-1.92 0.68,-0.92 1.6,-1.36 0.68,0.16 1.8,0.84 1.12,0.64 1.92,1.8 -0.92,1.04 -1.56,2.08 -0.6,1.04 -1.12,2.16 -0.48,1.12 -0.92,2.32 -0.4,1.2 -0.92,2.52 -0.44,1.12 -0.8,2.32 -0.36,1.16 -0.4,2.04 0,0.72 -0.04,1 0,0.32 -0.2,0.32 -0.16,0 -0.64,-0.2 -0.48,-0.2 -1,-0.6 -0.48,-0.44 -0.88,-1.08 -0.4,-0.64 -0.4,-1.52 z m 7.64,-17.36 q 0,-0.24 0.12,-0.72 -0.2,-0.2 -0.36,-0.6 -0.12,-0.4 -0.12,-0.72 0,-0.36 0.08,-0.96 0.12,-0.64 0.28,-1.36 0.16,-0.72 0.4,-1.48 0.24,-0.8 0.48,-1.44 0.48,0 1.16,0.28 0.72,0.24 1.44,0.68 0.72,0.4 1.32,0.92 0.6,0.48 0.92,0.92 -0.44,0.44 -1.16,1.24 -0.72,0.76 -1.4,1.64 -0.68,0.84 -1.24,1.6 -0.56,0.76 -0.72,1.08 -0.48,-0.08 -0.84,-0.4 -0.36,-0.36 -0.36,-0.68 z"
           id="path4659"
           inkscape:connector-curvature="0" />
        <path
           d="m 242.23445,377.27464 q -0.92,2.92 -1.84,5.32 -0.92,2.4 -1.96,4.4 -1.04,2.04 -2.24,3.72 -1.2,1.72 -2.64,3.24 -1.84,1.92 -3.8,2.92 -1.96,1.04 -3.92,1.04 -1,0 -2,-0.24 -0.96,-0.2 -1.8,-0.6 -0.88,-0.36 -1.52,-0.88 -0.68,-0.48 -0.96,-1.04 0,-0.48 0.56,-0.84 0.48,0.44 0.8,0.68 0.32,0.24 0.64,0.4 0.28,0.16 0.64,0.2 0.32,0.04 0.76,0.04 2.28,0 4.44,-1.36 2.2,-1.32 4.12,-3.8 1.96,-2.44 3.56,-5.96 1.6,-3.48 2.72,-7.8 -0.52,0.8 -1.28,1.96 -0.76,1.16 -1.68,2.32 -0.92,1.12 -1.92,2.04 -0.96,0.92 -1.88,1.24 -0.64,-0.04 -1.36,-0.28 -0.68,-0.2 -1.32,-0.6 -0.6,-0.4 -1.08,-0.96 -0.48,-0.56 -0.64,-1.28 0,-1.16 0.08,-1.84 0.08,-0.72 0.28,-1.56 0.36,-1.52 1.04,-3.44 0.72,-1.92 1.64,-3.76 0.96,-1.88 2.08,-3.48 1.16,-1.64 2.4,-2.56 0.32,0 0.8,0.08 0.48,0.04 1,0.2 0.52,0.16 1,0.4 0.48,0.2 0.84,0.56 -0.44,0.4 -1.92,2.68 -1.48,2.28 -3.28,6.56 -0.2,0.44 -0.48,1.28 -0.28,0.84 -0.56,1.76 -0.24,0.92 -0.44,1.8 -0.2,0.88 -0.2,1.4 0,0.32 0.08,0.48 0.12,0.16 0.2,0.24 0.72,-0.12 1.92,-1.16 1.2,-1.08 2.72,-3.32 0.96,-1.44 1.76,-2.84 0.8,-1.44 1.56,-2.88 0.8,-1.44 1.64,-2.96 0.84,-1.52 1.8,-3.12 0.52,0 1.12,0.12 0.6,0.12 1.16,0.32 0.56,0.16 0.96,0.4 0.44,0.2 0.64,0.44 -1.24,2.64 -2.32,5.16 -1.08,2.52 -1.92,5.16 z"
           id="path4661"
           inkscape:connector-curvature="0" />
        <path
           d="m 260.5257,367.55464 q -0.04,0.76 -0.28,1.6 -0.2,0.8 -0.52,1.48 -0.32,0.64 -0.68,1.08 -0.36,0.44 -0.68,0.44 -0.44,-0.04 -0.52,-0.6 0,-0.12 0.08,-0.36 0.12,-0.28 0.24,-0.6 0.12,-0.32 0.2,-0.64 0.12,-0.32 0.12,-0.56 0,-0.56 -0.28,-0.92 -0.24,-0.4 -0.68,-0.4 -1.6,0 -2.44,2 -0.84,2 -0.84,5.88 0,0.4 0.04,0.48 0.84,-0.04 1.48,-0.04 0.68,-0.04 1.32,-0.04 0.04,0.08 0.04,0.32 0,0.36 -0.16,0.52 -0.92,0.2 -1.48,0.36 -0.52,0.12 -0.8,0.24 -0.28,0.12 -0.36,0.28 -0.04,0.12 -0.04,0.36 0,0.32 0,0.64 0.04,0.32 0.04,0.8 0,3.36 -1.84,5.4 -1.8,2.04 -5.04,2.36 -0.56,-0.04 -1.16,-0.32 -0.6,-0.28 -1.16,-0.72 -0.52,-0.44 -0.92,-1 -0.4,-0.52 -0.56,-1.08 0,-1.52 0.64,-2.88 0.64,-1.4 1.72,-2.44 1.12,-1.08 2.6,-1.72 1.52,-0.68 3.28,-0.8 0,-1 -0.2,-1.96 -0.2,-0.96 -0.44,-1.84 -0.2,-0.92 -0.4,-1.76 -0.2,-0.88 -0.2,-1.72 0,-1.08 0.44,-2.12 0.44,-1.08 1.16,-1.96 0.72,-0.92 1.68,-1.56 0.96,-0.64 2,-0.88 0.44,0.12 1.16,0.72 0.76,0.56 1.48,1.28 0.72,0.72 1.28,1.48 0.56,0.72 0.68,1.2 z m -13.2,18.24 q 0.96,-0.4 1.8,-1.16 0.88,-0.76 1.52,-1.72 0.64,-0.96 1,-2.04 0.4,-1.08 0.4,-2.12 -0.8,0.12 -1.76,0.76 -0.96,0.6 -1.8,1.48 -0.84,0.84 -1.4,1.76 -0.56,0.92 -0.56,1.6 0,0.88 0.8,1.44 z"
           id="path4663"
           inkscape:connector-curvature="0" />
        <path
           d="m 260.63383,379.71464 q 0,-1.44 0.72,-4 0.76,-2.56 1.96,-5.6 1.2,-3.04 2.72,-6.28 1.52,-3.24 3.04,-6.04 1.56,-2.8 2.96,-4.84 1.44,-2.04 2.44,-2.76 0.56,0.04 1.2,0.48 0.68,0.44 1.24,1.08 0.56,0.6 0.92,1.28 0.4,0.68 0.4,1.24 -1.8,1.44 -3.68,3.72 -1.84,2.24 -3.52,4.96 -1.68,2.68 -3.12,5.72 -1.4,3 -2.36,5.92 1.28,-2.2 2.68,-4 1.4,-1.8 2.8,-3.08 1.4,-1.28 2.72,-1.96 1.36,-0.72 2.56,-0.76 1.76,1.28 1.76,3.4 0,1.28 -0.52,2.6 -0.52,1.28 -1.4,2.4 -0.84,1.08 -1.96,1.88 -1.08,0.76 -2.28,1 0.4,1.4 1,2.84 0.64,1.44 1.48,2.8 0.88,1.36 1.96,2.52 1.12,1.16 2.52,1.96 -0.2,0.4 -0.6,0.8 -0.4,0.4 -0.96,0.68 -0.56,0.32 -1.24,0.48 -0.64,0.2 -1.28,0.2 -1.08,0 -2.04,-1.08 -0.92,-1.08 -1.68,-3.12 -0.6,-1.64 -1.16,-3.92 -0.56,-2.28 -1,-4.76 0.56,-0.36 1.4,-1.04 0.84,-0.72 1.76,-1.64 3.52,-3.4 3.52,-5.88 0,-0.32 -0.44,-0.32 -0.8,0.04 -1.88,0.76 -1.08,0.72 -2.32,2 -1.2,1.28 -2.48,3 -1.24,1.72 -2.4,3.72 -0.48,0.8 -0.88,1.84 -0.4,1.04 -0.72,2.16 -0.28,1.08 -0.44,2.16 -0.16,1.08 -0.16,2 0,0.56 0.12,0.92 -1.24,-0.12 -1.52,-0.64 -0.32,-0.48 -0.56,-0.8 -0.2,-0.28 -0.44,-0.48 -0.36,-0.28 -0.6,-1.2 -0.24,-0.92 -0.24,-2.32 z"
           id="path4665"
           inkscape:connector-curvature="0" />
      </g>
    </g>
  </g>
</svg>
